<svg xmlns="http://www.w3.org/2000/svg" viewBox="0 0 64 64" role="img" aria-label="Logo Anderson Pontes">
  <defs>
    <linearGradient id="bg" x1="0%" y1="0%" x2="100%" y2="100%">
      <stop offset="0%" stop-color="#06b6d4" />
      <stop offset="100%" stop-color="#7c3aed" />
    </linearGradient>
    <linearGradient id="stroke" x1="0%" y1="0%" x2="100%" y2="0%">
      <stop offset="0%" stop-color="#67e8f9" />
      <stop offset="100%" stop-color="#c4b5fd" />
    </linearGradient>
  </defs>
  <rect x="4" y="4" width="56" height="56" rx="14" fill="#020617" />
  <rect x="6" y="6" width="52" height="52" rx="12" fill="url(#bg)" opacity="0.2" />
  <path d="M18 20h8l10 24h-7l-2-5h-8l-2 5h-7l8-24zm3 14h4l-2-6-2 6z" fill="url(#stroke)" />
  <path d="M38 20h8c6 0 10 4 10 10s-4 10-10 10h-2v4h-6V20zm8 15c2.4 0 4-1.8 4-5s-1.6-5-4-5h-2v10h2z" fill="url(#stroke)" />
</svg>
